/kaggle/working/opencap-processing/OpenCapData_ab7eb7cf-817d-4035-a30b-ee68773906cb/OpenSimData/Dynamics/Suhasno_3/GRF_resultant_Suhasno_3_Suhasno_3_window_0.mot
version=1
nRows=20
nColumns=19
inDegrees=yes
endheader 
time	ground_force_right_vx	ground_force_right_vy	ground_force_right_vz	ground_force_right_px	ground_force_right_py	ground_force_right_pz	ground_torque_right_x	ground_torque_right_y	ground_torque_right_z	ground_force_left_vx	ground_force_left_vy	ground_force_left_vz	ground_force_left_px	ground_force_left_py	ground_force_left_pz	ground_torque_left_x	ground_torque_left_y	ground_torque_left_z	
          0.00000000	         -3.28703575	        246.20298756	          3.65730357	          0.91498688	          0.00000000	         -0.05256140	          0.00000000	          0.46821276	          0.00000000	         13.89573859	        250.66404110	         12.08726580	          0.73281062	          0.00000000	         -0.25326077	          0.00000000	         -4.13687278	          0.00000000	
          0.05000000	        -13.26579233	        378.48839897	         18.03623709	          0.91897299	          0.00000000	         -0.04639823	          0.00000000	          0.29479788	          0.00000000	         35.73607264	        150.70066097	        -15.31455368	          0.73288720	          0.00000000	         -0.25423793	          0.00000000	         -2.07200632	          0.00000000	
          0.10000000	         20.54102626	        554.22488743	         20.93260377	          0.92677211	          0.00000000	         -0.04049351	          0.00000000	         -1.76583307	          0.00000000	        -11.58017121	         81.57165658	        -42.09080884	          0.72062537	          0.00000000	         -0.25701813	          0.00000000	          0.05375028	          0.00000000	
          0.15000000	         14.52990586	        607.52083673	         -5.76572230	          0.93494898	          0.00000000	         -0.03675623	          0.00000000	          2.03575452	          0.00000000	        -18.30983319	         34.06641720	         -1.62700973	          0.72394542	          0.00000000	         -0.26735287	          0.00000000	          0.22579293	          0.00000000	
          0.20000000	        -39.86912557	        534.61776936	         36.52473927	          0.95143974	          0.00000000	         -0.02956602	          0.00000000	          2.30686784	          0.00000000	         -0.93457943	         44.70782496	        -33.30040099	          0.74878034	          0.00000000	         -0.28055980	          0.00000000	         -0.10068414	          0.00000000	
          0.25000000	          3.47093687	        492.98712025	         26.33790447	          0.97543356	          0.00000000	         -0.02114810	          0.00000000	         -2.43172831	          0.00000000	         43.15619818	         58.69833514	        -38.07530408	          0.75725356	          0.00000000	         -0.26970311	          0.00000000	          0.01773027	          0.00000000	
          0.30000000	         74.10755155	        590.68857741	         15.69112821	          0.98051192	          0.00000000	         -0.01579693	          0.00000000	         -4.89892276	          0.00000000	         25.26896706	         40.76788075	        -27.39605077	          0.76131462	          0.00000000	         -0.24479789	          0.00000000	          0.03147965	          0.00000000	
          0.35000000	        106.32657125	        624.38807245	        -40.23043561	          0.97051505	          0.00000000	         -0.01224694	          0.00000000	         -8.56343914	          0.00000000	        -50.13670381	         44.12064886	        -11.28854190	          0.78516079	          0.00000000	         -0.22189038	          0.00000000	         -0.01022394	          0.00000000	
          0.40000000	         22.20909464	        450.81969619	        -32.00516096	          0.96801193	          0.00000000	         -0.00519425	          0.00000000	          0.66663657	          0.00000000	        -65.57343472	         36.20995939	         11.69866275	          0.85815399	          0.00000000	         -0.22293273	          0.00000000	         -0.00447493	          0.00000000	
          0.45000000	        -18.81144077	        353.32502801	        -29.29090926	          0.98083468	          0.00000000	          0.00814918	          0.00000000	          2.33173606	          0.00000000	        -21.29173018	         10.80885188	          6.32927574	          0.97059013	          0.00000000	         -0.24557502	          0.00000000	         -0.00163501	          0.00000000	
          0.50000000	         -0.11561975	        407.32800215	        -28.22321572	          0.99184655	          0.00000000	          0.01319650	          0.00000000	          2.27141598	          0.00000000	         -2.60963498	          1.59652228	          1.02251456	          1.07559838	          0.00000000	         -0.28008237	          0.00000000	         -0.00012399	          0.00000000	
          0.55000000	         39.91567478	        578.74213305	        -27.77505586	          0.99322959	          0.00000000	          0.00379954	          0.00000000	         -1.63536433	          0.00000000	         -0.00731418	          0.00500869	          0.00205208	          1.13040833	          0.00000000	         -0.32584542	          0.00000000	          0.00000325	          0.00000000	
          0.60000000	        108.13881238	        694.65969495	        -24.14668397	          0.98909543	          0.00000000	         -0.00679434	          0.00000000	         -1.77844926	          0.00000000	         -0.31624569	          0.22169204	          0.06945605	          1.05457396	          0.00000000	         -0.24969715	          0.00000000	          0.00004608	          0.00000000	
          0.65000000	         98.12382301	        587.53732921	          6.98595235	          0.99542451	          0.00000000	         -0.00921054	          0.00000000	          3.13146362	          0.00000000	        -21.13977890	         13.64481762	          0.56804722	          1.10746930	          0.00000000	         -0.25426954	          0.00000000	          0.00064761	          0.00000000	
          0.70000000	         83.04212623	        438.45087265	          5.79193915	          1.01486886	          0.00000000	         -0.00595366	          0.00000000	          0.91463522	          0.00000000	        -92.23313650	         75.96298051	        -32.46858120	          1.16345408	          0.00000000	         -0.24993744	          0.00000000	          0.00585136	          0.00000000	
          0.75000000	        -43.41029434	        399.84478688	         42.00243382	          1.02790181	          0.00000000	         -0.00522236	          0.00000000	         -0.58597073	          0.00000000	         58.19973624	        253.18024513	        -48.62357134	          1.19754321	          0.00000000	         -0.24628266	          0.00000000	          0.45232945	          0.00000000	
          0.80000000	         37.12649691	        247.20996434	         55.70746199	          1.04844225	          0.00000000	         -0.00974370	          0.00000000	         -0.33075858	          0.00000000	         22.46073390	        413.46204058	        -18.63806084	          1.20559268	          0.00000000	         -0.25083780	          0.00000000	          1.19849520	          0.00000000	
          0.85000000	        104.33039409	        147.60015232	         50.82300884	          1.06842880	          0.00000000	         -0.01370439	          0.00000000	         -0.05862197	          0.00000000	         -9.72656233	        363.09072064	         13.98981875	          1.21619186	          0.00000000	         -0.25524472	          0.00000000	          1.07604655	          0.00000000	
          0.90000000	        -16.89477398	         69.93762970	         -3.10321760	          1.06639544	          0.00000000	         -0.01701418	          0.00000000	         -0.02833364	          0.00000000	         89.26148667	        454.09023701	         57.09100785	          1.22961928	          0.00000000	         -0.26006088	          0.00000000	          0.45101629	          0.00000000	
          0.95000000	          0.00008789	         -0.00007496	         -0.00000530	          0.00000000	          0.00000000	          0.00000000	          0.00000000	          0.00000606	          0.00000000	         39.82753464	        562.83385458	         49.69321745	          1.24184434	          0.00000000	         -0.26631748	          0.00000000	         -0.16969160	          0.00000000	
